<svg width="512" height="512" viewBox="0 0 512 512" fill="none" xmlns="http://www.w3.org/2000/svg">
<g clip-path="url(#clip0)">
<path d="M10.6668 245.182H475.578L301.777 71.4037C297.684 67.1667 297.802 60.4139 302.039 56.3209C306.173 52.329 312.726 52.329 316.859 56.3209L508.856 248.318C513.027 252.478 513.035 259.232 508.875 263.403C508.869 263.409 508.862 263.416 508.856 263.422L316.859 455.419C312.766 459.656 306.014 459.773 301.776 455.681C297.539 451.588 297.422 444.836 301.514 440.598C301.6 440.509 301.687 440.422 301.776 440.336L475.578 266.516H10.6678C4.77688 266.516 0.000961251 261.74 0.000961251 255.849C0.000961251 249.958 4.77587 245.182 10.6668 245.182Z" fill="white"/>
<path d="M309.329 458.513C312.16 458.518 314.877 457.398 316.881 455.398L508.878 263.401C513.042 259.236 513.042 252.484 508.878 248.318L316.881 56.3209C312.644 52.228 305.891 52.346 301.798 56.5829C297.806 60.7169 297.806 67.2698 301.798 71.4027L486.243 255.849L301.798 440.294C297.627 444.454 297.619 451.208 301.779 455.379C303.78 457.384 306.496 458.512 309.329 458.513Z" fill="white"/>
<path d="M10.6668 266.515H501.326C507.217 266.515 511.993 261.739 511.993 255.848C511.993 249.957 507.217 245.181 501.326 245.181H10.6668C4.77588 245.181 -3.79945e-06 249.957 -3.79945e-06 255.848C-3.79945e-06 261.739 4.77588 266.515 10.6668 266.515Z" fill="white"/>
</g>
<defs>
<clipPath id="clip0">
<rect width="512" height="512" fill="white"/>
</clipPath>
</defs>
</svg>
