<svg width="512" height="512" viewBox="0 0 512 512" fill="none" xmlns="http://www.w3.org/2000/svg">
<g clip-path="url(#clip0)">
<path d="M501.334 245.182H36.4234L210.224 71.4037C214.317 67.1667 214.199 60.4139 209.962 56.3209C205.828 52.329 199.275 52.329 195.142 56.3209L3.14494 248.318C-1.026 252.478 -1.034 259.232 3.12594 263.403C3.13194 263.409 3.13894 263.416 3.14494 263.422L195.142 455.419C199.235 459.656 205.987 459.773 210.225 455.681C214.462 451.588 214.579 444.836 210.487 440.598C210.401 440.509 210.314 440.422 210.225 440.336L36.4234 266.516H501.333C507.224 266.516 512 261.74 512 255.849C512 249.958 507.225 245.182 501.334 245.182Z" fill="white"/>
<path d="M202.672 458.513C199.841 458.518 197.124 457.398 195.12 455.398L3.12295 263.401C-1.04098 259.236 -1.04098 252.484 3.12295 248.318L195.12 56.3209C199.357 52.228 206.11 52.346 210.203 56.5829C214.195 60.7169 214.195 67.2698 210.203 71.4027L25.7576 255.849L210.203 440.294C214.374 444.454 214.382 451.208 210.222 455.379C208.221 457.384 205.505 458.512 202.672 458.513Z" fill="white"/>
<path d="M501.334 266.515H10.6749C4.78398 266.515 0.00805664 261.739 0.00805664 255.848C0.00805664 249.957 4.78398 245.181 10.6749 245.181H501.334C507.225 245.181 512.001 249.957 512.001 255.848C512.001 261.739 507.225 266.515 501.334 266.515Z" fill="white"/>
</g>
<defs>
<clipPath id="clip0">
<rect width="512" height="512" fill="white"/>
</clipPath>
</defs>
</svg>
