<svg width="159" height="132" viewBox="0 0 159 132" fill="none" xmlns="http://www.w3.org/2000/svg">
<path d="M81.7037 29.3482H112.505C120.502 29.3482 127.563 30.9693 133.687 34.2115C139.812 37.3817 144.567 41.8487 147.953 47.6127C151.339 53.3046 153.033 59.825 153.033 67.1741C153.033 74.5231 151.339 81.0796 147.953 86.8436C144.567 92.5355 139.812 97.0025 133.687 100.245C127.563 103.415 120.502 105 112.505 105H81.7037V29.3482ZM112.073 98.0833C118.701 98.0833 124.501 96.7864 129.472 94.1926C134.444 91.5268 138.299 87.8883 141.036 83.2771C143.774 78.5939 145.143 73.2262 145.143 67.1741C145.143 61.1219 143.774 55.7903 141.036 51.1791C138.299 46.4959 134.444 42.8574 129.472 40.2636C124.501 37.5978 118.701 36.2649 112.073 36.2649H89.7012V98.0833H112.073Z" fill="white"/>
<path d="M77.1649 29.3482H46.3638C38.3663 29.3482 31.3055 30.9693 25.1813 34.2115C19.0571 37.3817 14.3018 41.8487 10.9155 47.6127C7.52919 53.3046 5.83603 59.825 5.83603 67.1741C5.83603 74.5231 7.52919 81.0796 10.9155 86.8436C14.3018 92.5355 19.0571 97.0025 25.1813 100.245C31.3055 103.415 38.3663 105 46.3638 105H77.1649V29.3482ZM46.7961 98.0833C40.1676 98.0833 34.3676 96.7864 29.3962 94.1926C24.4248 91.5268 20.5701 87.8883 17.8323 83.2771C15.0944 78.5939 13.7254 73.2262 13.7254 67.1741C13.7254 61.1219 15.0944 55.7903 17.8323 51.1791C20.5701 46.4959 24.4248 42.8574 29.3962 40.2636C34.3676 37.5978 40.1676 36.2649 46.7961 36.2649H69.1674V98.0833H46.7961Z" fill="white"/>
</svg>
