<svg width="741" height="610" viewBox="0 0 741 610" fill="none" xmlns="http://www.w3.org/2000/svg">
<g filter="url(#filter0_d)">
<path d="M381 134H523.5C560.5 134 593.167 141.5 621.5 156.5C649.833 171.167 671.833 191.833 687.5 218.5C703.167 244.833 711 275 711 309C711 343 703.167 373.333 687.5 400C671.833 426.333 649.833 447 621.5 462C593.167 476.667 560.5 484 523.5 484H381V134ZM521.5 452C552.167 452 579 446 602 434C625 421.667 642.833 404.833 655.5 383.5C668.167 361.833 674.5 337 674.5 309C674.5 281 668.167 256.333 655.5 235C642.833 213.333 625 196.5 602 184.5C579 172.167 552.167 166 521.5 166H418V452H521.5Z" fill="white"/>
<path d="M360 134H217.5C180.5 134 147.833 141.5 119.5 156.5C91.1667 171.167 69.1667 191.833 53.5 218.5C37.8333 244.833 30 275 30 309C30 343 37.8333 373.333 53.5 400C69.1667 426.333 91.1667 447 119.5 462C147.833 476.667 180.5 484 217.5 484H360V134ZM219.5 452C188.833 452 162 446 139 434C116 421.667 98.1667 404.833 85.5 383.5C72.8333 361.833 66.5 337 66.5 309C66.5 281 72.8333 256.333 85.5 235C98.1667 213.333 116 196.5 139 184.5C162 172.167 188.833 166 219.5 166H323V452H219.5Z" fill="white"/>
<path d="M154.772 530.1L141.32 570H136.874L125.189 535.971L113.447 570H109.058L95.6056 530.1H99.9376L111.452 564.414L123.365 530.1H127.298L139.04 564.585L150.725 530.1H154.772ZM221.5 566.352V570H193.285V530.1H220.645V533.748H197.503V547.941H218.137V551.532H197.503V566.352H221.5ZM262.195 530.1H278.44C282.658 530.1 286.382 530.955 289.612 532.665C292.842 534.337 295.35 536.693 297.136 539.733C298.922 542.735 299.815 546.174 299.815 550.05C299.815 553.926 298.922 557.384 297.136 560.424C295.35 563.426 292.842 565.782 289.612 567.492C286.382 569.164 282.658 570 278.44 570H262.195V530.1ZM278.212 566.352C281.708 566.352 284.767 565.668 287.389 564.3C290.011 562.894 292.044 560.975 293.488 558.543C294.932 556.073 295.654 553.242 295.654 550.05C295.654 546.858 294.932 544.046 293.488 541.614C292.044 539.144 290.011 537.225 287.389 535.857C284.767 534.451 281.708 533.748 278.212 533.748H266.413V566.352H278.212ZM340.067 530.1H356.312C360.53 530.1 364.254 530.955 367.484 532.665C370.714 534.337 373.222 536.693 375.008 539.733C376.794 542.735 377.687 546.174 377.687 550.05C377.687 553.926 376.794 557.384 375.008 560.424C373.222 563.426 370.714 565.782 367.484 567.492C364.254 569.164 360.53 570 356.312 570H340.067V530.1ZM356.084 566.352C359.58 566.352 362.639 565.668 365.261 564.3C367.883 562.894 369.916 560.975 371.36 558.543C372.804 556.073 373.526 553.242 373.526 550.05C373.526 546.858 372.804 544.046 371.36 541.614C369.916 539.144 367.883 537.225 365.261 535.857C362.639 534.451 359.58 533.748 356.084 533.748H344.285V566.352H356.084ZM417.939 530.1H422.157V570H417.939V530.1ZM499.264 530.1V570H495.787L470.137 537.624V570H465.919V530.1H469.396L495.103 562.476V530.1H499.264ZM571.168 550.05H575.215V565.269C573.353 566.903 571.149 568.157 568.603 569.031C566.057 569.905 563.378 570.342 560.566 570.342C556.576 570.342 552.985 569.468 549.793 567.72C546.601 565.972 544.093 563.559 542.269 560.481C540.445 557.365 539.533 553.888 539.533 550.05C539.533 546.212 540.445 542.754 542.269 539.676C544.093 536.56 546.601 534.128 549.793 532.38C552.985 530.632 556.595 529.758 560.623 529.758C563.663 529.758 566.456 530.252 569.002 531.24C571.548 532.19 573.695 533.615 575.443 535.515L572.821 538.194C569.667 535.078 565.658 533.52 560.794 533.52C557.564 533.52 554.638 534.242 552.016 535.686C549.432 537.092 547.399 539.068 545.917 541.614C544.435 544.122 543.694 546.934 543.694 550.05C543.694 553.166 544.435 555.978 545.917 558.486C547.399 560.994 549.432 562.97 552.016 564.414C554.6 565.858 557.507 566.58 560.737 566.58C564.841 566.58 568.318 565.554 571.168 563.502V550.05ZM628.934 570.342C625.97 570.342 623.12 569.867 620.384 568.917C617.686 567.967 615.596 566.713 614.114 565.155L615.767 561.906C617.211 563.35 619.13 564.528 621.524 565.44C623.918 566.314 626.388 566.751 628.934 566.751C632.506 566.751 635.185 566.105 636.971 564.813C638.757 563.483 639.65 561.773 639.65 559.683C639.65 558.087 639.156 556.814 638.168 555.864C637.218 554.914 636.04 554.192 634.634 553.698C633.228 553.166 631.271 552.596 628.763 551.988C625.761 551.228 623.367 550.506 621.581 549.822C619.795 549.1 618.256 548.017 616.964 546.573C615.71 545.129 615.083 543.172 615.083 540.702C615.083 538.688 615.615 536.864 616.679 535.23C617.743 533.558 619.377 532.228 621.581 531.24C623.785 530.252 626.521 529.758 629.789 529.758C632.069 529.758 634.292 530.081 636.458 530.727C638.662 531.335 640.562 532.19 642.158 533.292L640.733 536.655C639.061 535.553 637.275 534.736 635.375 534.204C633.475 533.634 631.613 533.349 629.789 533.349C626.293 533.349 623.652 534.033 621.866 535.401C620.118 536.731 619.244 538.46 619.244 540.588C619.244 542.184 619.719 543.476 620.669 544.464C621.657 545.414 622.873 546.155 624.317 546.687C625.799 547.181 627.775 547.732 630.245 548.34C633.171 549.062 635.527 549.784 637.313 550.506C639.137 551.19 640.676 552.254 641.93 553.698C643.184 555.104 643.811 557.023 643.811 559.455C643.811 561.469 643.26 563.312 642.158 564.984C641.094 566.618 639.441 567.929 637.199 568.917C634.957 569.867 632.202 570.342 628.934 570.342Z" fill="white"/>
</g>
<defs>
<filter id="filter0_d" x="0" y="108" width="741" height="496.342" filterUnits="userSpaceOnUse" color-interpolation-filters="sRGB">
<feFlood flood-opacity="0" result="BackgroundImageFix"/>
<feColorMatrix in="SourceAlpha" type="matrix" values="0 0 0 0 0 0 0 0 0 0 0 0 0 0 0 0 0 0 127 0"/>
<feOffset dy="4"/>
<feGaussianBlur stdDeviation="15"/>
<feColorMatrix type="matrix" values="0 0 0 0 1 0 0 0 0 1 0 0 0 0 1 0 0 0 0.1 0"/>
<feBlend mode="normal" in2="BackgroundImageFix" result="effect1_dropShadow"/>
<feBlend mode="normal" in="SourceGraphic" in2="effect1_dropShadow" result="shape"/>
</filter>
</defs>
</svg>
